<svg width="500" height="180" viewBox="0 0 500 180" fill="none" xmlns="http://www.w3.org/2000/svg">
<g clip-path="url(#clip0_13_2)">
<mask id="mask0_13_2" style="mask-type:luminance" maskUnits="userSpaceOnUse" x="165" y="0" width="321" height="178">
<path d="M165.333 0.333252H485.334V177.318H165.333V0.333252Z" fill="white"/>
</mask>
<g mask="url(#mask0_13_2)">
<path d="M449.651 97.8281C448.917 97.7396 448.224 97.5156 447.578 97.1614C446.927 96.8021 446.37 96.3385 445.906 95.7656C445.438 95.1927 445.099 94.5521 444.88 93.8437C444.661 93.1406 444.583 92.4166 444.651 91.6823C444.807 89.8489 444.854 88.0208 444.854 86.1354C444.854 83.8125 444.766 81.4948 444.578 79.1823C444.391 76.8646 444.109 74.5625 443.734 72.2708C443.359 69.9791 442.891 67.7083 442.328 65.4531C441.771 63.1979 441.12 60.9739 440.375 58.7708C439.635 56.5729 438.802 54.4062 437.885 52.276C436.969 50.1406 435.964 48.0469 434.875 46C433.786 43.9479 432.615 41.9427 431.359 39.9896C430.109 38.0364 428.776 36.1354 427.37 34.2864C425.964 32.4375 424.484 30.651 422.927 28.9271C421.375 27.2031 419.755 25.5416 418.068 23.9479C416.375 22.3541 414.625 20.8333 412.813 19.3802C411 17.9271 409.13 16.5521 407.208 15.2552C405.281 13.9583 403.307 12.7396 401.281 11.6041C399.26 10.4635 397.193 9.41143 395.083 8.44268C392.969 7.47393 390.823 6.59372 388.641 5.79685C386.458 5.00518 384.25 4.30206 382.01 3.68747C379.771 3.07289 377.51 2.55205 375.229 2.11976C372.948 1.69268 370.651 1.35414 368.339 1.11456C366.031 0.874972 363.714 0.723931 361.396 0.671847C359.073 0.619765 356.755 0.661431 354.438 0.796847C352.12 0.932265 349.807 1.16143 347.51 1.48435C345.208 1.81247 342.927 2.22914 340.661 2.73956C338.396 3.24997 336.156 3.84893 333.943 4.54164C331.724 5.23435 329.542 6.02081 327.385 6.8906C325.234 7.76039 323.12 8.71872 321.047 9.76039C318.974 10.8073 316.943 11.9323 314.964 13.1406C312.979 14.3489 311.052 15.6406 309.172 17.0052C307.297 18.3698 305.474 19.8125 303.719 21.3281C301.958 22.8437 300.26 24.4271 298.63 26.0781C297 27.7291 295.438 29.4479 293.948 31.2291C292.458 33.0104 291.042 34.8489 289.698 36.7448C288.359 38.6406 287.099 40.5833 285.917 42.5833C285.568 43.1718 285.125 43.6823 284.589 44.1094C284.057 44.5416 283.464 44.8594 282.813 45.0781C282.167 45.2916 281.495 45.3854 280.813 45.3646C280.13 45.3385 279.469 45.1927 278.839 44.9323C277.76 44.4844 276.672 44.0677 275.568 43.6875C274.469 43.3125 273.354 42.9635 272.229 42.651C271.104 42.3385 269.974 42.0625 268.833 41.8229C267.693 41.5781 266.547 41.375 265.391 41.2031C264.24 41.0312 263.083 40.8906 261.922 40.7916C260.76 40.6927 259.594 40.625 258.432 40.5989C257.266 40.5677 256.099 40.5729 254.932 40.6146C253.771 40.6562 252.604 40.7343 251.443 40.8489C250.286 40.9635 249.13 41.1093 247.979 41.2968C246.828 41.4791 245.682 41.6979 244.542 41.9531C243.406 42.2083 242.276 42.5 241.156 42.8229C240.036 43.1458 238.927 43.5052 237.828 43.8958C236.729 44.2864 235.646 44.7135 234.573 45.1719C233.5 45.6302 232.448 46.1198 231.406 46.6458C230.359 47.1666 229.339 47.7239 228.328 48.3125C227.323 48.8958 226.333 49.5156 225.365 50.1614C224.391 50.8073 223.443 51.4844 222.516 52.1875C221.589 52.8958 220.682 53.625 219.797 54.3906C218.911 55.151 218.052 55.9375 217.219 56.75C216.385 57.5625 215.573 58.401 214.792 59.2656C214.005 60.1302 213.25 61.0156 212.521 61.9271C211.792 62.8333 211.089 63.7656 210.417 64.7187C209.745 65.6719 209.104 66.6458 208.49 67.6354C207.88 68.6302 207.297 69.6354 206.745 70.6666C206.198 71.6927 205.677 72.7396 205.193 73.7969C204.703 74.8541 204.25 75.9323 203.828 77.0156C203.411 78.1041 203.021 79.2031 202.672 80.3177C202.318 81.4271 202 82.5469 201.714 83.6771C201.427 84.8073 201.182 85.9479 200.964 87.0937C200.75 88.2396 200.573 89.3906 200.427 90.5468C200.286 91.7031 200.177 92.8646 200.104 94.0312C200.031 95.1927 199.995 96.3593 199.995 97.526C199.995 99.4166 200.099 101.302 200.255 103.135C200.318 103.865 200.245 104.578 200.031 105.276C199.818 105.979 199.484 106.615 199.026 107.182C198.568 107.755 198.021 108.219 197.385 108.578C196.745 108.937 196.068 109.167 195.339 109.266C194.286 109.417 193.24 109.62 192.203 109.87C191.172 110.12 190.151 110.417 189.141 110.766C188.135 111.109 187.146 111.5 186.172 111.943C185.203 112.38 184.255 112.859 183.328 113.391C182.401 113.917 181.505 114.484 180.63 115.094C179.76 115.708 178.917 116.359 178.104 117.047C177.292 117.74 176.516 118.464 175.771 119.224C175.026 119.99 174.323 120.786 173.651 121.615C172.984 122.443 172.354 123.302 171.766 124.187C171.177 125.073 170.63 125.99 170.125 126.927C169.625 127.865 169.161 128.828 168.75 129.807C168.339 130.786 167.969 131.786 167.651 132.802C167.328 133.818 167.057 134.849 166.833 135.891C166.609 136.932 166.432 137.979 166.307 139.036C166.182 140.094 166.104 141.156 166.078 142.224C166.052 143.286 166.073 144.349 166.146 145.411C166.219 146.474 166.344 147.531 166.51 148.583C166.682 149.635 166.906 150.677 167.172 151.708C167.443 152.74 167.76 153.755 168.125 154.755C168.49 155.755 168.896 156.74 169.354 157.703C169.807 158.661 170.307 159.604 170.854 160.521C171.396 161.437 171.979 162.323 172.609 163.187C173.234 164.047 173.901 164.875 174.604 165.677C175.307 166.474 176.047 167.24 176.823 167.969C177.599 168.698 178.411 169.391 179.25 170.047C180.089 170.698 180.958 171.312 181.859 171.885C182.755 172.458 183.677 172.99 184.625 173.474C185.573 173.964 186.542 174.401 187.531 174.797C188.521 175.193 189.526 175.542 190.547 175.844C191.568 176.146 192.604 176.401 193.646 176.604C194.693 176.812 195.745 176.969 196.807 177.073C197.865 177.182 198.927 177.24 199.995 177.245H444.854C446.109 177.245 447.359 177.182 448.604 177.062C449.854 176.937 451.089 176.76 452.323 176.521C453.552 176.281 454.771 175.99 455.969 175.635C457.172 175.281 458.359 174.875 459.521 174.411C460.688 173.948 461.823 173.427 462.938 172.854C464.057 172.286 465.141 171.661 466.198 170.99C467.255 170.312 468.276 169.589 469.266 168.818C470.25 168.052 471.203 167.234 472.115 166.375C473.026 165.516 473.896 164.615 474.719 163.672C475.547 162.729 476.328 161.75 477.063 160.734C477.797 159.719 478.479 158.672 479.115 157.589C479.75 156.51 480.333 155.401 480.865 154.266C481.396 153.13 481.87 151.974 482.292 150.792C482.714 149.615 483.078 148.417 483.385 147.203C483.698 145.984 483.948 144.76 484.141 143.521C484.333 142.281 484.469 141.036 484.542 139.786C484.62 138.536 484.635 137.286 484.594 136.031C484.547 134.781 484.448 133.531 484.286 132.292C484.13 131.047 483.911 129.812 483.635 128.594C483.354 127.37 483.021 126.161 482.63 124.974C482.245 123.781 481.797 122.609 481.297 121.464C480.797 120.312 480.24 119.193 479.635 118.094C479.031 116.995 478.37 115.932 477.667 114.896C476.958 113.859 476.203 112.865 475.401 111.901C474.599 110.937 473.755 110.01 472.87 109.13C471.979 108.245 471.052 107.406 470.083 106.609C469.115 105.812 468.115 105.062 467.073 104.359C466.036 103.656 464.969 103.005 463.87 102.406C462.766 101.807 461.641 101.255 460.49 100.76C459.339 100.266 458.167 99.8281 456.974 99.4427C455.781 99.0573 454.573 98.7343 453.349 98.4635C452.125 98.1927 450.891 97.9791 449.651 97.8281Z" fill="#BCC9FF"/>
</g>
<path d="M0.994629 177.315V93.3984H32.3488L52.9946 132.544L56.3696 140.211L56.2655 131.065V93.3984H82.9946V177.315H51.5363L30.9946 138.169L27.6196 130.503V177.315H0.994629Z" fill="#2F52E0"/>
<path d="M126.525 179.461C116.9 179.461 109.192 178.148 103.4 175.523C97.6084 172.888 93.4313 168.846 90.8792 163.398C88.3219 157.94 87.0459 151.076 87.0459 142.794V93.3984H116.046V144.044C116.046 152.544 119.577 156.794 126.65 156.794C133.634 156.794 137.129 152.581 137.129 144.148V93.3984H166.108V142.794C166.108 150.992 164.848 157.794 162.338 163.211C159.822 168.628 155.681 172.69 149.921 175.398C144.171 178.107 136.369 179.461 126.525 179.461Z" fill="#2F52E0"/>
<path d="M164.408 93.3984H194.762L208.741 152.732L209.304 155.878H209.533L210.22 152.732L224.074 93.3984H254.533L228.929 177.315H189.679L164.408 93.3984Z" fill="#2F52E0"/>
<path d="M292.885 179.461C279.343 179.461 269.036 176.003 261.968 169.086C254.895 162.169 251.364 152.128 251.364 138.961V131.857C251.364 118.623 254.916 108.586 262.03 101.753C269.14 94.909 279.385 91.4819 292.76 91.4819C306.301 91.4819 316.619 94.909 323.718 101.753C330.827 108.586 334.385 118.623 334.385 131.857V138.961C334.385 152.128 330.827 162.169 323.718 169.086C316.619 176.003 306.343 179.461 292.885 179.461ZM280.593 141.003C280.593 151.534 284.687 156.794 292.885 156.794C300.994 156.794 305.051 151.534 305.051 141.003V129.94C305.051 119.414 300.994 114.149 292.885 114.149C284.687 114.149 280.593 119.414 280.593 129.94V141.003Z" fill="#2F52E0"/>
<path d="M336.745 177.315V93.3984H378.932C391.265 93.3984 400.151 95.6901 405.599 100.273C411.057 104.857 413.786 111.138 413.786 119.107V119.794C413.786 125.211 412.484 129.784 409.89 133.503C407.292 137.227 403.515 139.727 398.557 141.003V141.107C402.849 142.164 406.005 144.289 408.036 147.482C410.062 150.68 411.265 154.94 411.64 160.273L412.203 166.482C412.661 170.69 413.526 174.305 414.807 177.315H386.036C385.286 174.914 384.568 170.664 383.89 164.565L383.224 159.378C382.917 156.753 381.995 154.768 380.453 153.419C378.911 152.06 376.411 151.378 372.953 151.378H365.745V177.315H336.745ZM365.745 132.753H375.661C378.521 132.753 380.776 132.044 382.432 130.628C384.083 129.201 384.911 126.789 384.911 123.398V122.503C384.911 116.784 381.979 113.919 376.12 113.919H365.745V132.753Z" fill="#2F52E0"/>
<path d="M409.82 177.315L435.091 93.3984H475.132L500.736 177.315H470.278L466.903 163.544H443.549L440.174 177.315H409.82ZM448.174 144.711H462.278L457.653 125.648L455.403 113.357H455.174L452.924 125.648L448.174 144.711Z" fill="#2F52E0"/>
</g>
<defs>
<clipPath id="clip0_13_2">
<rect width="500" height="180" fill="white"/>
</clipPath>
</defs>
</svg>
